<svg width="637" height="637" viewBox="0 0 637 637" fill="none"
	xmlns="http://www.w3.org/2000/svg">
	<rect width="637" height="637" rx="30" fill="white"/>
	<path d="M93 560.117V150.882C93 134.918 108.297 123.403 123.638 127.818L346.638 192.003C356.919 194.962 364 204.368 364 215.067V507.042C364 518.156 356.369 527.816 345.557 530.39L122.557 583.465C107.476 587.055 93 575.619 93 560.117Z" fill="#061B51"/>
	<path d="M503.09 318.97C543.357 318.97 576 286.327 576 246.06C576 205.793 543.357 173.151 503.09 173.151C502.27 173.151 501.453 173.164 500.639 173.191C491.558 137.2 458.969 110.562 420.158 110.562C410.279 110.562 400.803 112.288 392.015 115.455C372.073 89.6315 340.806 73 305.655 73C245.427 73 196.604 121.824 196.604 182.051C196.604 185.323 196.748 188.563 197.03 191.762V195.864C184.617 208.937 177 226.609 177 246.06C177 285.523 208.352 317.663 247.506 318.931V318.97H503.09Z" fill="#00AEEF"/>
	<path fill-rule="evenodd" clip-rule="evenodd" d="M364 318.97V215.067C364 204.368 356.919 194.962 346.638 192.003L201.334 150.181C198.258 160.262 196.604 170.963 196.604 182.051C196.604 185.323 196.748 188.563 197.03 191.762V195.864C184.617 208.937 177 226.609 177 246.06C177 285.523 208.352 317.663 247.506 318.931V318.97H364Z" fill="#303EAB"/>
</svg>
