<svg width="483" height="518" viewBox="0 0 483 518" fill="none" xmlns="http://www.w3.org/2000/svg">
<path d="M0 487.117V77.8821C0 61.9175 15.2965 50.4027 30.6382 54.8184L253.638 119.003C263.919 121.962 271 131.368 271 142.067V434.042C271 445.156 263.369 454.816 252.557 457.39L29.557 510.465C14.4764 514.055 0 502.619 0 487.117Z" fill="#061B51"/>
<path d="M410.09 245.97C450.357 245.97 483 213.327 483 173.06C483 132.793 450.357 100.151 410.09 100.151C409.27 100.151 408.453 100.164 407.639 100.191C398.558 64.2004 365.969 37.562 327.158 37.562C317.279 37.562 307.803 39.2878 299.015 42.4547C279.073 16.6315 247.806 0 212.655 0C152.427 0 103.604 48.8237 103.604 109.051C103.604 112.323 103.748 115.563 104.03 118.762V122.864C91.6167 135.937 84 153.609 84 173.06C84 212.523 115.352 244.663 154.506 245.931V245.97H410.09Z" fill="#00AEEF"/>
<path fill-rule="evenodd" clip-rule="evenodd" d="M271 245.97V142.067C271 131.368 263.919 121.962 253.638 119.003L108.334 77.1811C105.258 87.2622 103.604 97.9632 103.604 109.051C103.604 112.323 103.748 115.563 104.03 118.762V122.864C91.6167 135.937 84 153.609 84 173.06C84 212.523 115.352 244.663 154.506 245.931V245.97H271Z" fill="#303EAB"/>
</svg>
